<svg width="12" height="12" viewBox="0 0 12 12" fill="none" xmlns="http://www.w3.org/2000/svg">
<path fill-rule="evenodd" clip-rule="evenodd" d="M11.76 6.13639C11.76 5.71094 11.7218 5.30185 11.6509 4.90912H6V7.23003H9.22909C9.09 7.98003 8.66727 8.61548 8.03182 9.04094V10.5464H9.97091C11.1055 9.50185 11.76 7.96366 11.76 6.13639Z" fill="#4285F4"/>
<path fill-rule="evenodd" clip-rule="evenodd" d="M6 12C7.62 12 8.97818 11.4627 9.97091 10.5463L8.03182 9.04089C7.49455 9.40089 6.80727 9.61362 6 9.61362C4.43727 9.61362 3.11455 8.55817 2.64273 7.13998H0.638184V8.69453C1.62546 10.6554 3.65455 12 6 12Z" fill="#34A853"/>
<path fill-rule="evenodd" clip-rule="evenodd" d="M2.64273 7.14003C2.52273 6.78003 2.45455 6.39548 2.45455 6.00003C2.45455 5.60457 2.52273 5.22003 2.64273 4.86003V3.30548H0.638182C0.231818 4.11548 0 5.03184 0 6.00003C0 6.96821 0.231818 7.88457 0.638182 8.69457L2.64273 7.14003Z" fill="#FBBC05"/>
<path fill-rule="evenodd" clip-rule="evenodd" d="M6 2.38636C6.88091 2.38636 7.67182 2.68909 8.29364 3.28364L10.0145 1.56273C8.97546 0.594545 7.61727 0 6 0C3.65455 0 1.62546 1.34455 0.638184 3.30545L2.64273 4.86C3.11455 3.44182 4.43727 2.38636 6 2.38636Z" fill="#EA4335"/>
</svg>
